<svg width="152" height="20" viewBox="0 0 152 20" fill="none" xmlns="http://www.w3.org/2000/svg">
<path d="M8.946 12.606H3.942L3.114 15H0.468L4.986 2.418H7.92L12.438 15H9.774L8.946 12.606ZM8.262 10.59L6.444 5.334L4.626 10.59H8.262ZM16.6468 6.576C16.9708 6.048 17.3908 5.634 17.9068 5.334C18.4348 5.034 19.0348 4.884 19.7068 4.884V7.53H19.0408C18.2488 7.53 17.6488 7.716 17.2408 8.088C16.8448 8.46 16.6468 9.108 16.6468 10.032V15H14.1268V5.028H16.6468V6.576ZM20.7561 9.978C20.7561 8.97 20.9541 8.076 21.3501 7.296C21.7581 6.516 22.3101 5.916 23.0061 5.496C23.7021 5.076 24.4761 4.866 25.3281 4.866C25.9761 4.866 26.5941 5.01 27.1821 5.298C27.7701 5.574 28.2381 5.946 28.5861 6.414V1.68H31.1421V15H28.5861V13.524C28.2741 14.016 27.8361 14.412 27.2721 14.712C26.7081 15.012 26.0541 15.162 25.3101 15.162C24.4701 15.162 23.7021 14.946 23.0061 14.514C22.3101 14.082 21.7581 13.476 21.3501 12.696C20.9541 11.904 20.7561 10.998 20.7561 9.978ZM28.6041 10.014C28.6041 9.402 28.4841 8.88 28.2441 8.448C28.0041 8.004 27.6801 7.668 27.2721 7.44C26.8641 7.2 26.4261 7.08 25.9581 7.08C25.4901 7.08 25.0581 7.194 24.6621 7.422C24.2661 7.65 23.9421 7.986 23.6901 8.43C23.4501 8.862 23.3301 9.378 23.3301 9.978C23.3301 10.578 23.4501 11.106 23.6901 11.562C23.9421 12.006 24.2661 12.348 24.6621 12.588C25.0701 12.828 25.5021 12.948 25.9581 12.948C26.4261 12.948 26.8641 12.834 27.2721 12.606C27.6801 12.366 28.0041 12.03 28.2441 11.598C28.4841 11.154 28.6041 10.626 28.6041 10.014ZM43.0173 5.028V15H40.4793V13.74C40.1553 14.172 39.7293 14.514 39.2013 14.766C38.6853 15.006 38.1213 15.126 37.5093 15.126C36.7293 15.126 36.0393 14.964 35.4393 14.64C34.8393 14.304 34.3653 13.818 34.0173 13.182C33.6813 12.534 33.5133 11.766 33.5133 10.878V5.028H36.0333V10.518C36.0333 11.31 36.2313 11.922 36.6273 12.354C37.0233 12.774 37.5633 12.984 38.2473 12.984C38.9433 12.984 39.4893 12.774 39.8853 12.354C40.2813 11.922 40.4793 11.31 40.4793 10.518V5.028H43.0173ZM46.7817 3.84C46.3377 3.84 45.9657 3.702 45.6657 3.426C45.3777 3.138 45.2337 2.784 45.2337 2.364C45.2337 1.944 45.3777 1.596 45.6657 1.32C45.9657 1.032 46.3377 0.887999 46.7817 0.887999C47.2257 0.887999 47.5917 1.032 47.8797 1.32C48.1797 1.596 48.3297 1.944 48.3297 2.364C48.3297 2.784 48.1797 3.138 47.8797 3.426C47.5917 3.702 47.2257 3.84 46.7817 3.84ZM48.0237 5.028V15H45.5037V5.028H48.0237ZM56.0395 4.884C57.2275 4.884 58.1875 5.262 58.9195 6.018C59.6515 6.762 60.0175 7.806 60.0175 9.15V15H57.4975V9.492C57.4975 8.7 57.2995 8.094 56.9035 7.674C56.5075 7.242 55.9675 7.026 55.2835 7.026C54.5875 7.026 54.0355 7.242 53.6275 7.674C53.2315 8.094 53.0335 8.7 53.0335 9.492V15H50.5135V5.028H53.0335V6.27C53.3695 5.838 53.7955 5.502 54.3115 5.262C54.8395 5.01 55.4155 4.884 56.0395 4.884ZM66.8419 15.162C65.8819 15.162 65.0179 14.952 64.2499 14.532C63.4819 14.1 62.8759 13.494 62.4319 12.714C61.9999 11.934 61.7839 11.034 61.7839 10.014C61.7839 8.994 62.0059 8.094 62.4499 7.314C62.9059 6.534 63.5239 5.934 64.3039 5.514C65.0839 5.082 65.9539 4.866 66.9139 4.866C67.8739 4.866 68.7439 5.082 69.5239 5.514C70.3039 5.934 70.9159 6.534 71.3599 7.314C71.8159 8.094 72.0439 8.994 72.0439 10.014C72.0439 11.034 71.8099 11.934 71.3419 12.714C70.8859 13.494 70.2619 14.1 69.4699 14.532C68.6899 14.952 67.8139 15.162 66.8419 15.162ZM66.8419 12.966C67.2979 12.966 67.7239 12.858 68.1199 12.642C68.5279 12.414 68.8519 12.078 69.0919 11.634C69.3319 11.19 69.4519 10.65 69.4519 10.014C69.4519 9.066 69.1999 8.34 68.6959 7.836C68.2039 7.32 67.5979 7.062 66.8779 7.062C66.1579 7.062 65.5519 7.32 65.0599 7.836C64.5799 8.34 64.3399 9.066 64.3399 10.014C64.3399 10.962 64.5739 11.694 65.0419 12.21C65.5219 12.714 66.1219 12.966 66.8419 12.966Z" fill="#FDFDFD"/>
<path d="M83.0544 6.324C83.0544 6.996 82.8924 7.626 82.5684 8.214C82.2564 8.802 81.7584 9.276 81.0744 9.636C80.4024 9.996 79.5504 10.176 78.5184 10.176H76.4124V15H73.8924V2.436H78.5184C79.4904 2.436 80.3184 2.604 81.0024 2.94C81.6864 3.276 82.1964 3.738 82.5324 4.326C82.8804 4.914 83.0544 5.58 83.0544 6.324ZM78.4104 8.142C79.1064 8.142 79.6224 7.986 79.9584 7.674C80.2944 7.35 80.4624 6.9 80.4624 6.324C80.4624 5.1 79.7784 4.488 78.4104 4.488H76.4124V8.142H78.4104ZM87.3636 1.68V15H84.8436V1.68H87.3636ZM89.2053 9.978C89.2053 8.97 89.4033 8.076 89.7993 7.296C90.2073 6.516 90.7533 5.916 91.4373 5.496C92.1333 5.076 92.9073 4.866 93.7593 4.866C94.5033 4.866 95.1513 5.016 95.7033 5.316C96.2673 5.616 96.7173 5.994 97.0533 6.45V5.028H99.5913V15H97.0533V13.542C96.7293 14.01 96.2793 14.4 95.7033 14.712C95.1393 15.012 94.4853 15.162 93.7413 15.162C92.9013 15.162 92.1333 14.946 91.4373 14.514C90.7533 14.082 90.2073 13.476 89.7993 12.696C89.4033 11.904 89.2053 10.998 89.2053 9.978ZM97.0533 10.014C97.0533 9.402 96.9333 8.88 96.6933 8.448C96.4533 8.004 96.1293 7.668 95.7213 7.44C95.3133 7.2 94.8753 7.08 94.4073 7.08C93.9393 7.08 93.5073 7.194 93.1113 7.422C92.7153 7.65 92.3913 7.986 92.1393 8.43C91.8993 8.862 91.7793 9.378 91.7793 9.978C91.7793 10.578 91.8993 11.106 92.1393 11.562C92.3913 12.006 92.7153 12.348 93.1113 12.588C93.5193 12.828 93.9513 12.948 94.4073 12.948C94.8753 12.948 95.3133 12.834 95.7213 12.606C96.1293 12.366 96.4533 12.03 96.6933 11.598C96.9333 11.154 97.0533 10.626 97.0533 10.014ZM111.593 5.028L105.419 19.716H102.737L104.897 14.748L100.901 5.028H103.727L106.301 11.994L108.911 5.028H111.593ZM115.885 7.098V11.922C115.885 12.258 115.963 12.504 116.119 12.66C116.287 12.804 116.563 12.876 116.947 12.876H118.117V15H116.533C114.409 15 113.347 13.968 113.347 11.904V7.098H112.159V5.028H113.347V2.562H115.885V5.028H118.117V7.098H115.885ZM129.2 9.798C129.2 10.158 129.176 10.482 129.128 10.77H121.838C121.898 11.49 122.15 12.054 122.594 12.462C123.038 12.87 123.584 13.074 124.232 13.074C125.168 13.074 125.834 12.672 126.23 11.868H128.948C128.66 12.828 128.108 13.62 127.292 14.244C126.476 14.856 125.474 15.162 124.286 15.162C123.326 15.162 122.462 14.952 121.694 14.532C120.938 14.1 120.344 13.494 119.912 12.714C119.492 11.934 119.281 11.034 119.281 10.014C119.281 8.982 119.492 8.076 119.912 7.296C120.332 6.516 120.92 5.916 121.676 5.496C122.432 5.076 123.302 4.866 124.286 4.866C125.234 4.866 126.08 5.07 126.824 5.478C127.58 5.886 128.162 6.468 128.57 7.224C128.99 7.968 129.2 8.826 129.2 9.798ZM126.59 9.078C126.578 8.43 126.344 7.914 125.888 7.53C125.432 7.134 124.874 6.936 124.214 6.936C123.59 6.936 123.062 7.128 122.63 7.512C122.21 7.884 121.952 8.406 121.856 9.078H126.59ZM130.391 10.014C130.391 8.982 130.601 8.082 131.021 7.314C131.441 6.534 132.023 5.934 132.767 5.514C133.511 5.082 134.363 4.866 135.323 4.866C136.559 4.866 137.579 5.178 138.383 5.802C139.199 6.414 139.745 7.278 140.021 8.394H137.303C137.159 7.962 136.913 7.626 136.565 7.386C136.229 7.134 135.809 7.008 135.305 7.008C134.585 7.008 134.015 7.272 133.595 7.8C133.175 8.316 132.965 9.054 132.965 10.014C132.965 10.962 133.175 11.7 133.595 12.228C134.015 12.744 134.585 13.002 135.305 13.002C136.325 13.002 136.991 12.546 137.303 11.634H140.021C139.745 12.714 139.199 13.572 138.383 14.208C137.567 14.844 136.547 15.162 135.323 15.162C134.363 15.162 133.511 14.952 132.767 14.532C132.023 14.1 131.441 13.5 131.021 12.732C130.601 11.952 130.391 11.046 130.391 10.014ZM147.483 4.884C148.239 4.884 148.911 5.052 149.499 5.388C150.087 5.712 150.543 6.198 150.867 6.846C151.203 7.482 151.371 8.25 151.371 9.15V15H148.851V9.492C148.851 8.7 148.653 8.094 148.257 7.674C147.861 7.242 147.321 7.026 146.637 7.026C145.941 7.026 145.389 7.242 144.981 7.674C144.585 8.094 144.387 8.7 144.387 9.492V15H141.867V1.68H144.387V6.27C144.711 5.838 145.143 5.502 145.683 5.262C146.223 5.01 146.823 4.884 147.483 4.884Z" fill="url(#paint0_linear_310_698)"/>
<defs>
<linearGradient id="paint0_linear_310_698" x1="0" y1="8.5" x2="153" y2="8.5" gradientUnits="userSpaceOnUse">
<stop stop-color="#DAB7F5"/>
<stop offset="0.5" stop-color="#B594D0"/>
<stop offset="1" stop-color="#71389E"/>
</linearGradient>
</defs>
</svg>
